<?xml version="1.0" encoding="utf-8"?>
<!-- Generator: Adobe Illustrator 24.1.3, SVG Export Plug-In . SVG Version: 6.00 Build 0)  -->
<svg version="1.1" id="圖層_1" xmlns="http://www.w3.org/2000/svg" xmlns:xlink="http://www.w3.org/1999/xlink" x="0px" y="0px"
	 viewBox="0 0 16.38 13.42" style="enable-background:new 0 0 16.38 13.42;" xml:space="preserve">
<style type="text/css">
	.st0{opacity:0.15;fill:#FF8C00;}
	.st1{fill:#FF8C00;}
	.st2{opacity:0.15;fill:#009B7E;}
	.st3{fill:#009B7E;}
	.st4{opacity:0.15;fill:#11A400;}
	.st5{fill:#11A400;}
	.st6{fill:#11CF00;}
	.st7{opacity:0.15;fill:#F03737;}
	.st8{fill:#F03737;}
	.st9{opacity:0.15;fill:#A531F7;}
	.st10{fill:#A531F7;}
	.st11{opacity:0.15;fill:#CF00C4;}
	.st12{fill:#CF00C4;}
	.st13{fill:#999999;}
</style>
<g>
	<path d="M13.88,11.8H2.5C1.12,11.8,0,10.68,0,9.3V2.5C0,1.12,1.12,0,2.5,0h11.38c1.38,0,2.5,1.12,2.5,2.5v6.8
		C16.38,10.68,15.25,11.8,13.88,11.8z M2.5,1C1.67,1,1,1.67,1,2.5v6.8c0,0.83,0.67,1.5,1.5,1.5h11.38c0.83,0,1.5-0.67,1.5-1.5V2.5
		c0-0.83-0.67-1.5-1.5-1.5H2.5z"/>
	<polygon points="8.19,10.75 9.57,12.09 10.96,13.42 8.19,13.42 5.42,13.42 6.8,12.09 	"/>
</g>
</svg>
