<?xml version="1.0" encoding="utf-8"?>
<!-- Generator: Adobe Illustrator 24.1.3, SVG Export Plug-In . SVG Version: 6.00 Build 0)  -->
<svg version="1.1" id="圖層_1" xmlns="http://www.w3.org/2000/svg" xmlns:xlink="http://www.w3.org/1999/xlink" x="0px" y="0px"
	 viewBox="0 0 19.5 19.5" style="enable-background:new 0 0 19.5 19.5;" xml:space="preserve">
<style type="text/css">
	.st0{opacity:0.15;fill:#FF8C00;}
	.st1{fill:#FF8C00;}
	.st2{opacity:0.15;fill:#009B7E;}
	.st3{fill:#009B7E;}
	.st4{opacity:0.15;fill:#11A400;}
	.st5{fill:#11A400;}
	.st6{fill:#11CF00;}
	.st7{opacity:0.15;fill:#F03737;}
	.st8{fill:#F03737;}
	.st9{opacity:0.15;fill:#A531F7;}
	.st10{fill:#A531F7;}
	.st11{opacity:0.15;fill:#CF00C4;}
	.st12{fill:#CF00C4;}
	.st13{fill:#999999;}
</style>
<g>
	<path class="st13" d="M9.75,19.5C4.37,19.5,0,15.13,0,9.75S4.37,0,9.75,0s9.75,4.37,9.75,9.75S15.13,19.5,9.75,19.5z M9.75,1.5
		C5.2,1.5,1.5,5.2,1.5,9.75S5.2,18,9.75,18S18,14.3,18,9.75S14.3,1.5,9.75,1.5z"/>
	<path class="st13" d="M15.15,10.95h-4.89c-0.41,0-0.75-0.34-0.75-0.75V4.35c0-0.41,0.34-0.75,0.75-0.75s0.75,0.34,0.75,0.75v5.1
		h4.14c0.41,0,0.75,0.34,0.75,0.75S15.56,10.95,15.15,10.95z"/>
</g>
</svg>
